PathFileType	4	(X/Y/Z)	17_2_57_p0_0-648.trc
DataRate	CameraRate	NumFrames	NumMarkers	Units	OrigDataRate	OrigDataStartFrame	OrigNumFrames
59.0	59.0	7	27	m	59.0	162	649
Frame#	Time	RHip			RKnee			RAnkle			RBigToe			RSmallToe			RHeel			LHip			LKnee			LAnkle			LBigToe			LSmallToe			LHeel			Neck			Head			Nose			RShoulder			RElbow			RWrist			RThumb			RIndex			RPinky			LShoulder			LElbow			LWrist			LThumb			LIndex			LPinky			
		X1	Y1	Z1	X2	Y2	Z2	X3	Y3	Z3	X4	Y4	Z4	X5	Y5	Z5	X6	Y6	Z6	X7	Y7	Z7	X8	Y8	Z8	X9	Y9	Z9	X10	Y10	Z10	X11	Y11	Z11	X12	Y12	Z12	X13	Y13	Z13	X14	Y14	Z14	X15	Y15	Z15	X16	Y16	Z16	X17	Y17	Z17	X18	Y18	Z18	X19	Y19	Z19	X20	Y20	Z20	X21	Y21	Z21	X22	Y22	Z22	X23	Y23	Z23	X24	Y24	Z24	X25	Y25	Z25	X26	Y26	Z26	X27	Y27	Z27	
162	2.7457627118644066	0.25066349142353284	0.46549610657489865	0.9044211273828817	0.24180382856128083	0.5615114758237871	1.3120548100948133	0.2120236861642009	0.7129537777624428	1.7126402732230122	0.2548297918125474	0.5311939433135311	1.731091037066031	0.3017082915354523	0.6002814576167437	1.7544145819189667	0.1902412343654776	0.7509585871442187	1.7632577720643852	0.061913426593577604	0.47434139202735737	0.9124326136300602	0.04375089568923636	0.5912314583322692	1.3381625939419326	0.03569347688254682	0.6680155566748536	1.7322058276409795	0.07608481284505281	0.45538793085820717	1.7173639841204187	0.0027452097809472415	0.5113015421681423	1.7273380676411594	0.05547120882518638	0.713766685733443	1.7709473539194338	0.16835801073521117	0.4027491121617252	0.30150792192491765	0.17315502218522816	0.3606738585429584	0.062487584729177495	0.16577631393426237	0.270823554785025	0.19570221837284663	0.2931772993522069	0.4422607028550095	0.40785662729946204	0.3677053188487845	0.4203047847505528	0.6650519760654384	0.31785839303782465	0.3865038311547141	0.896137017891245	0.24164276007230248	0.34740472728226324	0.9867046518258991	0.2614533911263098	0.38456203133608785	1.0290542449598001	0.29101988589582434	0.4041569206180706	1.0471456893726172	0.003851132564884314	0.401253820078916	0.4002776818802502	-0.03267680111648509	0.41407985000336467	0.6662874096916658	0.0450217295722705	0.3415709603413443	0.8833603400733989	0.08527806850126776	0.362969768615913	0.9729245458405543	0.0788455183044957	0.3493945212434278	0.9947597970145585	0.05287282209819973	0.35784832000368944	0.9938808344515062
163	2.76271186440678	0.25118899333180184	0.46723336213423894	0.9085085393210448	0.24184296617022807	0.5615106680313384	1.312062187533833	0.21202770137889193	0.7128610881576856	1.712621797680508	0.2554736773387884	0.5298742313315173	1.7351000872382492	0.30165810133109217	0.6001708096545423	1.7544059570487929	0.19020718370306244	0.7510213963488962	1.7633548515124908	0.06186306981707377	0.4745883369506608	0.9125305659015133	0.04365212733063451	0.5913596566516601	1.3382626065539882	0.03572039127003256	0.66802393003678	1.7322034011887026	0.07546932006671078	0.45331069982872363	1.7118971313385853	0.003313601409977964	0.5103684896910443	1.730587521762655	0.0555537857898724	0.7136958290908605	1.770874638801542	0.16835209983289118	0.4027781981910236	0.30153442197107716	0.17171127301004793	0.3498343968064844	0.06628765905487188	0.16575366168947903	0.2707690885328793	0.19572600536021023	0.29317849989029027	0.442244495889663	0.4079484249924444	0.3676899987454117	0.42038442680312976	0.6651603670558945	0.31738135619941177	0.38478454116227745	0.8924237426930113	0.24359337127258285	0.36040471683664316	0.9893764614472703	0.2615637060969054	0.3847773045668464	1.029151311788894	0.2916817179711926	0.4042299694378815	1.043197302897488	0.0038727062699366894	0.40139045086290054	0.4002940641591807	-0.03264279129505072	0.4141694255149127	0.6663213105401528	0.04503321264881102	0.34169991240366604	0.8834051437793331	0.08527953355972054	0.36294233820118516	0.9729079221443326	0.07882144306975869	0.34932405251846044	0.994526169702939	0.05293459242986841	0.35749672940462945	0.9936824473880009
164	2.7796610169491527	0.2527784056771934	0.47776797242840874	0.9070468017539297	0.24182947045646763	0.5615965895253124	1.3121803954303337	0.21196517469395026	0.7130432785222444	1.7127394282053272	0.25553656918979334	0.5298565933883165	1.7350525015708491	0.30258924074681115	0.6026957481426941	1.7597639826116531	0.1902016710675612	0.7510277004596009	1.7631793575035892	0.061834839179445225	0.4748297360768359	0.9126045974566485	0.04383539335328874	0.5912985421816284	1.338277229089329	0.03571812387793545	0.6680898992094363	1.7320922579705766	0.07551823327172077	0.4532396886235011	1.7118168432236247	0.003317397794032394	0.5103284816375231	1.7305435181453819	0.055011743770537073	0.7151875017129647	1.7672074857828457	0.1683826419640998	0.4027130161596794	0.3014833331326603	0.1677307416445582	0.3470224764920812	0.06652181131586944	0.16574827321544092	0.2707691917777394	0.19573613246000426	0.2928905889334617	0.44243835882121363	0.40441232643591407	0.3672110290095233	0.4186857960547384	0.6610171713298294	0.3178503833638301	0.3861794723812099	0.8960970226266153	0.24397657817619212	0.35982344546341155	0.9932364842683434	0.26217841667892927	0.3844008312990323	1.025361011637459	0.2923340648140513	0.4038383750536364	1.039292438863338	0.004064386741572021	0.4010785829640897	0.39704191664754523	-0.03266066324043505	0.4139838158230887	0.6662590896579612	0.045005943903346134	0.3416013939876385	0.8834500751993555	0.0853680583189867	0.36296295644117993	0.9730073622696978	0.07881955357267392	0.3494845245881052	0.9949710795024354	0.05288795331409094	0.3578532512749909	0.9939317253744744
165	2.7966101694915255	0.25275990191168096	0.4779820830754927	0.9069936544812695	0.24183910799608585	0.5616413688697255	1.3119554613805502	0.21207048102670176	0.7130959525213585	1.7126064706709538	0.255576365980033	0.5300041135978505	1.7353132633292625	0.3017350643291981	0.600168374390708	1.7545392920886598	0.19027900029520464	0.7511972772223863	1.7630439064086476	0.055266569584824614	0.4884629072058596	0.9161887619991487	0.04375266974652133	0.5910717525677456	1.3379535752479912	0.042808546294118364	0.653121697114025	1.724327343471706	0.07554312694991737	0.4533291219777593	1.7118041391355672	0.003388758423503783	0.5104149740231885	1.7304716311115822	0.05521787072145032	0.7154261219639028	1.7672547746173406	0.16838464359544023	0.4027523363570866	0.3015521610905565	0.16772337996816317	0.3471055517865255	0.06658410432669798	0.16574745104324032	0.2707153884512679	0.19577167091343656	0.29350453210204364	0.44368259309673713	0.4116014891141984	0.3676186236078333	0.4202282452606462	0.6650389221122266	0.3178063636404439	0.38621438328372276	0.896121521932661	0.2491163012526488	0.3472204883617923	0.9896026642244856	0.26232184240493284	0.38435635778127836	1.0254279015916048	0.2922910437102581	0.4039201484689826	1.0392993944150313	7.002404815521043e-05	0.39926606139101617	0.4003127958537342	-0.032649760118358004	0.41381037845406066	0.666250542941949	0.04365811221131976	0.3297727699096788	0.8808520914662313	0.08537110922791707	0.3632123356900198	0.9730584774674482	0.07332656420508411	0.3607699529279814	0.9984747905235214	0.05336569132033085	0.35919443498269354	0.9986699077767425
166	2.8135593220338984	0.2528241163831289	0.47787569560172005	0.9071069766920666	0.24105886376459662	0.5619181982478374	1.316553720522931	0.21198334533313087	0.7131089276191132	1.7125984133528984	0.2555658579745317	0.5302006338286676	1.7354682855600791	0.30173505738891454	0.6003452053313091	1.7546063805936702	0.1903019405339178	0.7510403852421301	1.7626096581808652	0.061977517676541236	0.4746227514449369	0.912534504518767	0.04290301925954776	0.5913218046033305	1.3420107729739528	0.042797135779597734	0.6532335601477657	1.7242570584501817	0.07555797960904372	0.45312707012253267	1.7119116558805394	0.003322547456237524	0.5104546408285938	1.7307294485090965	0.05523664733276949	0.7151436136983478	1.7668747368653275	0.16835099163266493	0.40282047805214943	0.30155534340878887	0.1676461436380265	0.3469933216904895	0.0665477070971651	0.16572785380157481	0.270707437830245	0.19579911639839154	0.29321989076541316	0.4439311625891669	0.4082343822021984	0.3676127900533116	0.42027492597340604	0.6651883279743598	0.3178142769246226	0.3862022683071914	0.8961705645341042	0.24909358149064098	0.3472391962178931	0.9896105165849935	0.2622881598272428	0.3843966707852495	1.0254016760441533	0.29223652101653275	0.4039033023947733	1.0392782930689095	0.0037920621526582247	0.4015394292953653	0.40038869092683366	-0.03270207547747945	0.41407841084463376	0.6663412480003801	0.04360407516901528	0.32987663729498157	0.8809544117350193	0.08392683788488342	0.35105726049160896	0.9700537977349253	0.07887879245846405	0.34939229101155694	0.9947457713581972	0.053024568281235834	0.3575923998663311	0.9939056197394681
167	2.830508474576271	0.25279559779403077	0.4779215256751516	0.9069946141165312	0.2418920422248382	0.5617254098940694	1.3119637672489193	0.21197752364765884	0.7131720577623394	1.7126525471823888	0.2555100733944144	0.5301712312775329	1.7353915076072362	0.30173157249762705	0.6002975221639122	1.7545110508847919	0.1902129691285206	0.7511019247810972	1.7628814643262087	0.06282794333739582	0.4856666744818886	0.9110530072170581	0.04313291202667938	0.588765276160015	1.3323598899847489	0.035726734067616395	0.6680322797761293	1.732025998925291	0.07561906368732003	0.45305466915991094	1.7118582450305702	0.003398620667279268	0.5102888425008663	1.7307304761238214	0.055080955975255676	0.715171611920441	1.7670610726320282	0.16837657543949855	0.4028451188833717	0.3016186464975808	0.167451472936618	0.3469624298575536	0.06310789945305056	0.1656810283297757	0.27060129312572223	0.19857896711838208	0.2932202717260301	0.4440328790827513	0.4082630668377394	0.36763748934500545	0.42032434774860383	0.6651958745871456	0.31785947316632795	0.3862449096845115	0.8961389161647224	0.24909328199953049	0.3472511968110647	0.9894568372171755	0.2622922844357595	0.3844601764466994	1.0254674452502677	0.2922589607844696	0.40404512503469275	1.0393161473705395	0.004119551582978708	0.4014394526040052	0.39719313379407395	-0.032211344989566335	0.4140356883157502	0.6630372195344696	0.044987156115070294	0.34156302662795995	0.8834494758144203	0.08580608295589436	0.3622478528055582	0.9761581343956455	0.07886027012425245	0.3493846508563341	0.9949056769688593	0.05232477763768404	0.3579942421593322	0.9969906394755397
168	2.847457627118644	0.25856929580540555	0.46416397206874627	0.9034773036108625	0.238966153611081	0.5482289759834753	1.311766757118944	0.21189151041420293	0.7132430669664892	1.7126862300195935	0.2554238087254495	0.5302144175825518	1.7353110870494133	0.3017184393311617	0.600401493428681	1.754459750511893	0.19017456838472138	0.7514274868489033	1.7631229170200995	0.06209644609254045	0.4742788877685724	0.9123948169919445	0.043796619081998354	0.5908236588900618	1.3377818017290524	0.035728324835777356	0.6679159090775476	1.7320726069699073	0.07466429465668999	0.4435976426318886	1.7070312896207154	0.0029939427536918727	0.5111198847917395	1.7270067858629639	0.05472647620977719	0.7150353125171189	1.767363277487826	0.16826570302903537	0.4027651390721138	0.3047864872047353	0.16755599751524303	0.3468466916685327	0.06649081599857805	0.1656623399086308	0.27060357120325196	0.1986304680854315	0.29360261390085357	0.4455374580304084	0.41193795294105057	0.36765004827029557	0.42045946300360804	0.6652112531017287	0.3178560937773414	0.3864545438976994	0.8961449712334636	0.24905368004408351	0.3473797189881081	0.989445030991141	0.2616027693711161	0.384792341884838	1.0292371256330124	0.2865138401198848	0.41590255228651835	1.046884057383637	0.003772201928283959	0.4016976238327527	0.40054136523173095	-0.0324792415699518	0.4141170210090365	0.6665176269338561	0.04506257410922008	0.3416554431027092	0.8834652456356201	0.08604306725942903	0.3623234999667497	0.9761147487480932	0.07884565237980193	0.3495692935149493	0.9947289674865079	0.052845025021822686	0.35764004009855405	0.9936337678853598
